<svg width="13" height="13" viewBox="0 0 13 13" fill="none" xmlns="http://www.w3.org/2000/svg">
<path d="M2.6 5.63333C3.61111 7.65556 5.34444 9.31667 7.36667 10.4L8.95556 8.81111C9.17219 8.59447 9.46111 8.52225 9.67778 8.66667C10.4722 8.95555 11.3389 9.1 12.2778 9.1C12.7111 9.1 13 9.38889 13 9.82222V12.2778C13 12.7111 12.7111 13 12.2778 13C5.48889 13 0 7.51111 0 0.722222C0 0.288889 0.288889 0 0.722222 0H3.25C3.68333 0 3.97222 0.288889 3.97222 0.722222C3.97222 1.58889 4.11667 2.45556 4.40556 3.32222C4.47778 3.53889 4.40556 3.82778 4.26111 4.04444L2.6 5.63333Z" fill="#B01C2E"/>
</svg>
